<?xml version="1.0" encoding="utf-8"?>
<!-- Generator: Adobe Illustrator 16.0.1, SVG Export Plug-In . SVG Version: 6.00 Build 0)  -->
<svg version="1.2" baseProfile="tiny" id="icons" xmlns="http://www.w3.org/2000/svg" xmlns:xlink="http://www.w3.org/1999/xlink"
	 x="0px" y="0px" width="19px" height="17px" viewBox="0 0 19 17" xml:space="preserve">
<path fill="#58595B" d="M19,2c0,1.1-0.9,2-2,2H2C0.9,4,0,3.1,0,2l0,0c0-1.1,0.9-2,2-2h15C18.1,0,19,0.9,19,2L19,2z"/>
<path fill="#58595B" d="M19,8.481c0,1.1-0.9,2-2,2H2c-1.1,0-2-0.9-2-2l0,0c0-1.1,0.9-2,2-2h15C18.1,6.481,19,7.381,19,8.481
	L19,8.481z"/>
<path fill="#58595B" d="M19,14.962c0,1.1-0.9,2-2,2H2c-1.1,0-2-0.9-2-2l0,0c0-1.1,0.9-2,2-2h15C18.1,12.962,19,13.862,19,14.962
	L19,14.962z"/>
</svg>
