<?xml version="1.0" encoding="iso-8859-1"?>
<!-- Generator: Adobe Illustrator 16.0.1, SVG Export Plug-In . SVG Version: 6.00 Build 0)  -->
<!DOCTYPE svg PUBLIC "-//W3C//DTD SVG 1.1//EN" "http://www.w3.org/Graphics/SVG/1.1/DTD/svg11.dtd">
<svg version="1.1" id="Layer_1" xmlns="http://www.w3.org/2000/svg" xmlns:xlink="http://www.w3.org/1999/xlink" x="0px" y="0px"
	 width="100px" height="2000px" viewBox="0 0 100 2000" enable-background="new 0 0 100 2000" xml:space="preserve">
<g>
	<path fill="#111111" d="M17.269,5.418L4.72,3.613l-1.668-1.04C2.827,2.433,2.535,2.5,2.395,2.725
		C2.254,2.95,2.322,3.246,2.547,3.385l1.618,1.01l2.82,7.018L5.98,13.921c-0.06,0.148-0.04,0.315,0.048,0.446
		c0.09,0.132,0.237,0.21,0.395,0.21h10.29c0.265-0.002,0.48-0.215,0.48-0.478c0-0.265-0.212-0.479-0.478-0.479H7.133l0.693-1.731
		h8.946c0.25,0,0.457-0.189,0.475-0.439l0.43-5.519C17.697,5.678,17.52,5.456,17.269,5.418z"/>
	<path fill="#111111" d="M16.057,14.732c-0.763,0-1.385,0.62-1.385,1.385c0,0.763,0.623,1.383,1.385,1.383
		c0.762,0,1.386-0.62,1.386-1.383C17.442,15.352,16.819,14.732,16.057,14.732z"/>
	<path fill="#111111" d="M8.335,14.732c-0.763,0-1.385,0.62-1.385,1.385c0,0.763,0.622,1.383,1.385,1.383s1.386-0.62,1.386-1.383
		C9.718,15.352,9.098,14.732,8.335,14.732z"/>
</g>
<g>
	<path fill="#8D8D8D" d="M17.269,105.418L4.72,103.613l-1.668-1.04c-0.225-0.14-0.518-0.073-0.657,0.152
		c-0.141,0.225-0.073,0.521,0.152,0.66l1.618,1.01l2.82,7.018l-1.005,2.508c-0.06,0.148-0.04,0.315,0.048,0.446
		c0.09,0.132,0.237,0.21,0.395,0.21h10.29c0.265-0.002,0.48-0.215,0.48-0.478c0-0.265-0.212-0.479-0.478-0.479H7.133l0.693-1.731
		h8.946c0.25,0,0.457-0.189,0.475-0.439l0.43-5.519C17.697,105.678,17.52,105.456,17.269,105.418z"/>
	<path fill="#8D8D8D" d="M16.057,114.732c-0.763,0-1.385,0.62-1.385,1.385c0,0.763,0.623,1.383,1.385,1.383
		c0.762,0,1.386-0.62,1.386-1.383C17.442,115.352,16.819,114.732,16.057,114.732z"/>
	<path fill="#8D8D8D" d="M8.335,114.732c-0.763,0-1.385,0.62-1.385,1.385c0,0.763,0.622,1.383,1.385,1.383s1.386-0.62,1.386-1.383
		C9.718,115.352,9.098,114.732,8.335,114.732z"/>
</g>
<g>
	<path fill="#8D8D8D" d="M16.258,206.204H3.742c-0.094,0-0.169-0.076-0.169-0.17v-1.182c0-0.748,0.605-1.353,1.354-1.353h10.148
		c0.747,0,1.354,0.604,1.354,1.353v1.182C16.428,206.128,16.352,206.204,16.258,206.204"/>
	<path fill="#8D8D8D" d="M16.258,221.765H3.742c-0.094,0-0.168,0.076-0.168,0.168v3.215c0,0.746,0.605,1.352,1.353,1.352h10.147
		c0.747,0,1.354-0.606,1.354-1.352v-3.215C16.428,221.84,16.351,221.765,16.258,221.765 M10,225.531
		c-0.765,0-1.383-0.619-1.383-1.384c0-0.764,0.619-1.384,1.383-1.384s1.383,0.62,1.383,1.384
		C11.383,224.912,10.765,225.531,10,225.531"/>
	<path fill="#8D8D8D" d="M16.258,220.411H3.742c-0.094,0-0.169-0.076-0.169-0.168v-12.517c0-0.093,0.076-0.168,0.169-0.168h12.516
		c0.094,0,0.17,0.076,0.17,0.168v12.517C16.428,220.335,16.352,220.411,16.258,220.411"/>
</g>
<g>
	<path fill="#8D8D8D" d="M27.447,815.771H15.119c-0.096,0-0.175,0.077-0.175,0.176v7.395c0,0.098,0.079,0.176,0.175,0.176h6.033
		c0.046,0,0.09,0.019,0.123,0.051l3.935,3.88c0.111,0.108,0.301,0.03,0.301-0.126v-3.629c0-0.097,0.078-0.176,0.176-0.176h1.76
		c0.098,0,0.176-0.079,0.176-0.176v-7.395C27.623,815.848,27.544,815.771,27.447,815.771"/>
	<path fill="#8D8D8D" d="M23.925,804.5H4.554c-0.098,0-0.177,0.078-0.177,0.176v11.623c0,0.097,0.079,0.176,0.177,0.176h1.057
		c0.096,0,0.174,0.079,0.174,0.176v3.625c0,0.156,0.191,0.236,0.301,0.125l3.875-3.874c0.033-0.034,0.078-0.052,0.125-0.052h3.273
		c0.097,0,0.176-0.079,0.176-0.176v-1.761c0-0.099,0.08-0.176,0.176-0.176h10.214c0.097,0,0.176-0.08,0.176-0.177v-9.509
		C24.101,804.578,24.021,804.5,23.925,804.5 M22.833,807.679c-3.878,1.659-7.758,3.318-11.635,4.978
		c-0.494,0.211-1.004,0.386-1.531,0.493c-0.72,0.143-1.444,0.184-2.16-0.257c-0.298-0.183-0.507-0.497-0.567-0.841
		c-0.128-0.746,0.066-1.4,0.369-2.022c0.281-0.575,0.661-1.084,1.073-1.57c0.237-0.283,0.488-0.558,0.733-0.834
		c0.021-0.023,0.043-0.045,0.064-0.068c0.003,0.002,0.007,0.005,0.011,0.007c-0.018,0.032-0.036,0.065-0.054,0.098
		c-0.254,0.459-0.454,0.938-0.51,1.465c-0.062,0.565,0.072,1.062,0.545,1.426c0.251,0.193,0.549,0.267,0.858,0.291
		c0.507,0.038,0.999-0.057,1.485-0.186c3.664-0.975,7.328-1.949,10.993-2.923c0.129-0.034,0.26-0.068,0.397-0.09
		C22.882,807.657,22.857,807.668,22.833,807.679"/>
</g>
<g>
	<g>
		<path fill="#8D8D8D" d="M12.342,515.168l6.39,4.887c0.072,0.054,0.172,0.054,0.244,0l11.109-8.496
			c0.153-0.117,0.07-0.362-0.123-0.362H15.622C15.079,512.903,13.89,514.324,12.342,515.168z"/>
		<path fill="#8D8D8D" d="M30.234,513.509l-11.258,8.677c-0.071,0.057-0.173,0.057-0.245,0l-8.221-6.337
			c-0.472,0.102-0.959,0.159-1.46,0.159c-0.66,0-1.295-0.101-1.9-0.274v10.565c0,0.111,0.089,0.202,0.202,0.202h23.004
			c0.113,0,0.203-0.091,0.203-0.202v-12.632C30.559,513.5,30.366,513.405,30.234,513.509z"/>
	</g>
	<path fill="#8D8D8D" d="M9.05,503.5c-3.098,0-5.608,2.511-5.608,5.608c0,3.099,2.511,5.608,5.608,5.608
		c3.099,0,5.61-2.509,5.61-5.608C14.66,506.011,12.149,503.5,9.05,503.5 M9.641,512.097v-1.861H5.67v-2.253h3.971v-1.862
		l3.333,2.988L9.641,512.097z"/>
</g>
<g>
	<path fill="#FFFFFF" d="M16.258,406.204H3.742c-0.094,0-0.169-0.076-0.169-0.17v-1.182c0-0.748,0.605-1.353,1.354-1.353h10.148
		c0.747,0,1.354,0.604,1.354,1.353v1.182C16.428,406.128,16.352,406.204,16.258,406.204"/>
	<path fill="#FFFFFF" d="M16.258,421.765H3.742c-0.094,0-0.168,0.076-0.168,0.168v3.215c0,0.746,0.605,1.352,1.353,1.352h10.147
		c0.747,0,1.354-0.606,1.354-1.352v-3.215C16.428,421.84,16.351,421.765,16.258,421.765 M10,425.531
		c-0.765,0-1.383-0.619-1.383-1.384c0-0.764,0.619-1.384,1.383-1.384s1.383,0.62,1.383,1.384
		C11.383,424.912,10.765,425.531,10,425.531"/>
	<path fill="#FFFFFF" d="M16.258,420.411H3.742c-0.094,0-0.169-0.076-0.169-0.168v-12.517c0-0.093,0.076-0.168,0.169-0.168h12.516
		c0.094,0,0.17,0.076,0.17,0.168v12.517C16.428,420.335,16.352,420.411,16.258,420.411"/>
</g>
<g>
	<g>
		<path fill="#FFFFFF" d="M12.342,715.168l6.39,4.887c0.072,0.054,0.172,0.054,0.244,0l11.109-8.496
			c0.153-0.117,0.07-0.362-0.123-0.362H15.622C15.079,712.903,13.89,714.324,12.342,715.168z"/>
		<path fill="#FFFFFF" d="M30.234,713.509l-11.258,8.677c-0.071,0.057-0.173,0.057-0.245,0l-8.221-6.337
			c-0.472,0.102-0.959,0.159-1.46,0.159c-0.66,0-1.295-0.101-1.9-0.274v10.565c0,0.111,0.089,0.202,0.202,0.202h23.004
			c0.113,0,0.203-0.09,0.203-0.202v-12.632C30.559,713.5,30.366,713.405,30.234,713.509z"/>
	</g>
	<path fill="#FFFFFF" d="M9.05,703.5c-3.098,0-5.608,2.511-5.608,5.608c0,3.099,2.511,5.608,5.608,5.608
		c3.099,0,5.61-2.509,5.61-5.608C14.66,706.011,12.149,703.5,9.05,703.5 M9.641,712.097v-1.861H5.67v-2.253h3.971v-1.862
		l3.333,2.988L9.641,712.097z"/>
</g>
<g>
	<path fill="#FFFFFF" d="M28.448,1014.771H16.12c-0.097,0-0.176,0.075-0.176,0.178v7.394c0,0.096,0.079,0.178,0.176,0.178h6.032
		c0.046,0,0.09,0.019,0.124,0.048l3.934,3.883c0.111,0.105,0.301,0.028,0.301-0.129v-3.626c0-0.1,0.078-0.176,0.176-0.176h1.761
		c0.097,0,0.175-0.082,0.175-0.178v-7.394C28.623,1014.847,28.544,1014.771,28.448,1014.771"/>
	<path fill="#FFFFFF" d="M24.926,1003.5H5.553c-0.097,0-0.176,0.077-0.176,0.178v11.619c0,0.101,0.079,0.177,0.176,0.177h1.059
		c0.095,0,0.173,0.082,0.173,0.177v3.623c0,0.156,0.191,0.238,0.301,0.127l3.875-3.877c0.034-0.03,0.078-0.05,0.125-0.05h3.274
		c0.095,0,0.175-0.076,0.175-0.177v-1.759c0-0.096,0.08-0.177,0.176-0.177h10.216c0.097,0,0.175-0.076,0.175-0.178v-9.506
		C25.101,1003.577,25.022,1003.5,24.926,1003.5 M23.834,1006.679c-3.879,1.656-7.758,3.316-11.637,4.977
		c-0.494,0.215-1.003,0.386-1.53,0.493c-0.719,0.141-1.444,0.184-2.159-0.254c-0.3-0.188-0.508-0.496-0.568-0.846
		c-0.127-0.743,0.067-1.397,0.37-2.021c0.28-0.575,0.661-1.083,1.074-1.57c0.238-0.279,0.487-0.559,0.733-0.833
		c0.021-0.023,0.043-0.045,0.065-0.068c0.002,0.002,0.005,0.004,0.009,0.005c-0.018,0.035-0.036,0.066-0.054,0.102
		c-0.255,0.457-0.455,0.936-0.511,1.464c-0.061,0.564,0.073,1.061,0.545,1.423c0.25,0.195,0.549,0.268,0.858,0.291
		c0.507,0.041,0.998-0.054,1.486-0.184c3.663-0.973,7.326-1.95,10.994-2.922c0.128-0.035,0.26-0.068,0.396-0.091
		C23.882,1006.655,23.858,1006.668,23.834,1006.679"/>
</g>
<g>
	<path fill="#111111" d="M27.447,915.771H15.119c-0.096,0-0.175,0.077-0.175,0.176v7.395c0,0.098,0.079,0.176,0.175,0.176h6.033
		c0.046,0,0.09,0.019,0.123,0.051l3.935,3.88c0.111,0.108,0.301,0.03,0.301-0.126v-3.629c0-0.097,0.078-0.176,0.176-0.176h1.76
		c0.098,0,0.176-0.079,0.176-0.176v-7.395C27.623,915.848,27.544,915.771,27.447,915.771"/>
	<path fill="#111111" d="M23.925,904.5H4.554c-0.098,0-0.177,0.078-0.177,0.176v11.623c0,0.097,0.079,0.175,0.177,0.175h1.057
		c0.096,0,0.174,0.079,0.174,0.176v3.625c0,0.156,0.191,0.236,0.301,0.125l3.875-3.874c0.033-0.034,0.078-0.052,0.125-0.052h3.273
		c0.097,0,0.176-0.079,0.176-0.175v-1.761c0-0.099,0.08-0.176,0.176-0.176h10.214c0.097,0,0.176-0.08,0.176-0.177v-9.509
		C24.101,904.578,24.021,904.5,23.925,904.5 M22.833,907.679c-3.878,1.659-7.758,3.318-11.635,4.978
		c-0.494,0.211-1.004,0.386-1.531,0.493c-0.72,0.143-1.444,0.184-2.16-0.257c-0.298-0.183-0.507-0.496-0.567-0.841
		c-0.128-0.746,0.066-1.4,0.369-2.022c0.281-0.575,0.661-1.084,1.073-1.57c0.237-0.283,0.488-0.558,0.733-0.833
		c0.021-0.024,0.043-0.045,0.064-0.068c0.003,0.002,0.007,0.005,0.011,0.007c-0.018,0.032-0.036,0.065-0.054,0.098
		c-0.254,0.459-0.454,0.938-0.51,1.465c-0.062,0.565,0.072,1.062,0.545,1.426c0.251,0.193,0.549,0.267,0.858,0.291
		c0.507,0.038,0.999-0.057,1.485-0.186c3.664-0.975,7.328-1.949,10.993-2.923c0.129-0.034,0.26-0.068,0.397-0.09
		C22.882,907.657,22.857,907.668,22.833,907.679"/>
</g>
<g>
	<g>
		<path fill="#000111" d="M12.342,615.168l6.39,4.887c0.072,0.054,0.172,0.054,0.244,0l11.109-8.496
			c0.153-0.117,0.07-0.362-0.123-0.362H15.622C15.079,612.903,13.89,614.324,12.342,615.168z"/>
		<path fill="#000111" d="M30.234,613.509l-11.258,8.677c-0.071,0.057-0.173,0.057-0.245,0l-8.221-6.337
			c-0.472,0.102-0.959,0.159-1.46,0.159c-0.66,0-1.295-0.101-1.9-0.274v10.565c0,0.111,0.089,0.202,0.202,0.202h23.004
			c0.113,0,0.203-0.09,0.203-0.202v-12.632C30.559,613.5,30.366,613.405,30.234,613.509z"/>
	</g>
	<path fill="#000111" d="M9.05,603.5c-3.098,0-5.608,2.511-5.608,5.608c0,3.099,2.511,5.608,5.608,5.608
		c3.099,0,5.61-2.509,5.61-5.608C14.66,606.011,12.149,603.5,9.05,603.5 M9.641,612.097v-1.861H5.67v-2.253h3.971v-1.862
		l3.333,2.988L9.641,612.097z"/>
</g>
<g>
	<path fill="#111111" d="M16.258,306.204H3.742c-0.094,0-0.169-0.076-0.169-0.17v-1.182c0-0.748,0.605-1.353,1.354-1.353h10.148
		c0.747,0,1.354,0.604,1.354,1.353v1.182C16.428,306.128,16.352,306.204,16.258,306.204"/>
	<path fill="#111111" d="M16.258,321.765H3.742c-0.094,0-0.168,0.076-0.168,0.168v3.215c0,0.746,0.605,1.352,1.353,1.352h10.147
		c0.747,0,1.354-0.606,1.354-1.352v-3.215C16.428,321.84,16.351,321.765,16.258,321.765 M10,325.531
		c-0.765,0-1.383-0.619-1.383-1.384c0-0.764,0.619-1.384,1.383-1.384s1.383,0.62,1.383,1.384
		C11.383,324.912,10.765,325.531,10,325.531"/>
	<path fill="#111111" d="M16.258,320.411H3.742c-0.094,0-0.169-0.076-0.169-0.168v-12.517c0-0.093,0.076-0.168,0.169-0.168h12.516
		c0.094,0,0.17,0.076,0.17,0.168v12.517C16.428,320.335,16.352,320.411,16.258,320.411"/>
</g>
<path fill="#111111" d="M13.652,1115.921c-2.839,1.201-7.294,2.579-9.15-0.403c-1.035-1.655-0.379-4.219,1.147-6.577
	c0.975-1.504,2.224-2.883,3.474-4.249c-0.697,1.125-2.652,4.882-0.088,6.762c0.994,0.722,2.747,0.792,4.931,0.229L40,1104.799
	L13.652,1115.921z"/>
<path fill="#8D8D8D" d="M13.652,1215.921c-2.839,1.201-7.294,2.579-9.149-0.403c-1.035-1.655-0.38-4.219,1.146-6.577
	c0.975-1.504,2.225-2.883,3.474-4.249c-0.697,1.125-2.651,4.882-0.088,6.762c0.994,0.722,2.747,0.792,4.931,0.229L40,1204.799
	L13.652,1215.921z"/>
<g>
</g>
<g>
</g>
<g>
</g>
<g>
</g>
<g>
</g>
<g>
</g>
<g>
</g>
<g>
</g>
<g>
</g>
<g>
</g>
<g>
</g>
<g>
</g>
<g>
</g>
<g>
</g>
<g>
</g>
</svg>
